<svg xmlns="http://www.w3.org/2000/svg" xmlns:xlink="http://www.w3.org/1999/xlink" style="height:unset;" data-version="6.4" viewBox="0 0 516 516"><jvs:data xmlns="http://www.w3.org/1999/xhtml" xmlns:jvs="http://www.janvas.com/jvs" data-type="jvs-doc-preferences">{"unitKey":"PIXEL","unitValue":1,"drawingScale":1,"findAllElementAtPoint":1,"optimizeZoom":false,"mantainAspectRatio":true,"interactionLabelVisibility":false,"svgAlignmentPreserveAspectRatio":"unset","snap":{"distance":10,"offsetDistance":50,"snapToPoints":true,"snapToContour":true,"snapToPerpendicular":true,"snapToTangent":true,"snapToIntersection":true,"snapToCenter":true,"snapToGrid":true,"snapToOffset":true,"snapToAngles":true,"snapAngleList":[45],"useSmartPoints":true,"useSmartGuides":true},"fixedDecimals":0,"rulersVisibility":true,"gridVisibility":false,"elementOriginVisibility":false,"gridStep":1,"origin":{"x":0,"y":0},"selectMainNodes":true,"scaleStrokeAndEffects":true,"scaleText":true,"moveStep":1,"rotateStep":45}</jvs:data><defs>
            <linearGradient id="IDI_235jkng2q" gradientUnits="objectBoundingBox" gradientTransform="matrix(1 0 0 1 0 0)"><stop offset="0" stop-color="#EC0000" stop-opacity="1"/><stop offset="0.4" stop-color="#DD0000" stop-opacity="1"/><stop offset="1" stop-color="#CC0000" stop-opacity="1"/></linearGradient></defs><svg class="page showed" xmlns="http://www.w3.org/2000/svg" xmlns:xlink="http://www.w3.org/1999/xlink" height="516" width="516" data-page-width="516" data-page-height="516" style="position: absolute;left: 0; top:0; right: 0; bottom:0; " id="" viewBox="0 0 516 516" y="0">
        <g class="content">
            <g class="layers">
                
            <g transform="matrix(1,0,0,1,0,0)" data-layer-name="first layer" data-layer-color="#007fff" class="layer">
                <rect x="-258.00001353025436" y="-258.00001353025436" width="516.0000270605087" height="516.0000270605087" stroke-width="0" stroke-linecap="round" stroke="none" fill="url(#IDI_235jkng2q)" transform="matrix(6.12323e-17 1 -1 6.12323e-17 258 258)" fill-opacity="1" stroke-opacity="1" data-mantain-aspect-ratio="true" class=""/><g data-type="object" data-object-id="arc-object" stroke="#FFFFFF" fill="none" stroke-width="26" transform="matrix(1 0 0 1 216.225 257.476)" stroke-opacity="1" fill-opacity="1" class="">
                    <path data-name="arc-fill" d="M 0.00041949920705519617 -37.489501953125 A 37.48950086390182 37.48950086390182 0 0 1 -0.0003813629155047238 37.489501953125L0 0 Z" stroke="none" transform="matrix(1 0 0 1 0 0)" class=""/>
                    <path data-name="arc-stroke" fill="none" d="M 0.00041949920705519617 -37.489501953125 A 37.48950086390182 37.48950086390182 0 0 1 -0.0003813629155047238 37.489501953125" transform="matrix(1 0 0 1 0 0)" class=""/>
                <jvs:data xmlns:jvs="http://www.janvas.com/jvs" data-type="jvs-object-properties">{"startAngle":270.00064112709003,"endAngle":450.00058284280914,"radius":37.48950086390182}</jvs:data></g><g data-type="object" data-object-id="arc-object" stroke="#FFFFFF" fill="none" stroke-width="26" transform="matrix(1 0 0 1 122.482 282.469)" stroke-opacity="1" fill-opacity="1" class="">
                    <path data-name="arc-fill" d="M -0.0000039806996028346475 62.48256301879883 A 62.48256389613319 62.48256389613319 0 1 1 0.0004203612043056637 -62.48256301879883L0 0 Z" stroke="none" transform="matrix(1 0 0 1 0 0)" class=""/>
                    <path data-name="arc-stroke" fill="none" d="M -0.0000039806996028346475 62.48256301879883 A 62.48256389613319 62.48256389613319 0 1 1 0.0004203612043056637 -62.48256301879883" transform="matrix(1 0 0 1 0 0)" class=""/>
                <jvs:data xmlns:jvs="http://www.janvas.com/jvs" data-type="jvs-object-properties">{"startAngle":90.00000365025484,"endAngle":270.00038546629054,"radius":62.48256389613319}</jvs:data></g><g data-type="object" data-object-id="arc-object" stroke="#FFFFFF" fill="none" stroke-width="26" transform="matrix(1 0 0 1 228.651 257.476)" stroke-opacity="1" fill-opacity="1" class="">
                    <path data-name="arc-fill" d="M 0.0001146439608419314 -87.47554016113281 A 87.47554335625586 87.47554335625586 0 1 1 -0.0008025087299756706 87.47554016113281L0 0 Z" stroke="none" transform="matrix(1 0 0 1 0 0)" class=""/>
                    <path data-name="arc-stroke" fill="none" d="M 0.0001146439608419314 -87.47554016113281 A 87.47554335625586 87.47554335625586 0 1 1 -0.0008025087299756706 87.47554016113281" transform="matrix(1 0 0 1 0 0)" class=""/>
                <jvs:data xmlns:jvs="http://www.janvas.com/jvs" data-type="jvs-object-properties">{"startAngle":270.0000750908754,"endAngle":450.00052563678076,"radius":87.47554335625586}</jvs:data></g><path d="M 0.0009694748441688716 -67.61973571777344 L 78.26373291015625 67.61978149414062 L -78.26348114013672 67.61978149414062 L 0.0009694748441688716 -67.61973571777344 Z " fill-rule="evenodd" fill="none" stroke="#FFFFFF" stroke-opacity="1" fill-opacity="1" transform="matrix(6.12323e-17 -1 1 6.12323e-17 387.38 257.056)" stroke-width="26.296573254843185" stroke-linejoin="round" class=""/><line x1="-156.207" y1="0.000121272" x2="-31.2064" y2="-2.75499e-05" stroke-width="26.251181851408543" stroke="#FFFFFF" transform="matrix(1 0 0 1 259.611 170.001)" fill="none" fill-opacity="1" stroke-linecap="round" stroke-linejoin="miter" stroke-opacity="1" class=""/><line x1="-140.586" y1="0.000363253" x2="-34.3358" y2="0.000118185" stroke-width="26.251181851408543" stroke="#FFFFFF" transform="matrix(1 0 0 1 263.066 344.953)" stroke-linecap="round" fill="none" fill-opacity="1" stroke-opacity="1" class=""/><line x1="-109.377" y1="-0.000242534" x2="-46.8769" y2="-0.000155338" stroke-width="26.251181851408543" stroke="#FFFFFF" transform="matrix(1 0 0 1 263.099 294.966)" stroke-linecap="round" fill="none" fill-opacity="1" stroke-opacity="1" class=""/><line x1="-124.998" y1="0.00023631" x2="-31.247" y2="2.17183e-05" stroke-width="26.251181851408543" stroke="#FFFFFF" transform="matrix(1 0 0 1 247.48 219.986)" stroke-linecap="round" fill="none" fill-opacity="1" stroke-opacity="1" class=""/></g></g>
        </g>
    </svg></svg>