<svg xmlns="http://www.w3.org/2000/svg" xmlns:xlink="http://www.w3.org/1999/xlink" style="height:unset;" data-version="6.4" viewBox="0 0 478 310"><jvs:data xmlns="http://www.w3.org/1999/xhtml" xmlns:jvs="http://www.janvas.com/jvs" data-type="jvs-doc-preferences">{"unitKey":"PIXEL","unitValue":1,"drawingScale":1,"findAllElementAtPoint":1,"optimizeZoom":false,"mantainAspectRatio":true,"interactionLabelVisibility":false,"svgAlignmentPreserveAspectRatio":"unset","snap":{"distance":10,"offsetDistance":50,"snapToPoints":true,"snapToContour":true,"snapToPerpendicular":true,"snapToTangent":true,"snapToIntersection":true,"snapToCenter":true,"snapToGrid":true,"snapToOffset":true,"snapToAngles":true,"snapAngleList":[45],"useSmartPoints":true,"useSmartGuides":true},"fixedDecimals":0,"rulersVisibility":true,"gridVisibility":false,"elementOriginVisibility":false,"gridStep":1,"origin":{"x":0,"y":0},"selectMainNodes":true,"scaleStrokeAndEffects":true,"scaleText":true,"moveStep":1,"rotateStep":45}</jvs:data><defs>
            </defs><svg class="page showed" xmlns="http://www.w3.org/2000/svg" xmlns:xlink="http://www.w3.org/1999/xlink" height="310" width="478" data-page-width="478" data-page-height="310" style="position: absolute;left: 0; top:0; right: 0; bottom:0; " id="" viewBox="0 0 478 310" y="0">
        <g class="content">
            <g class="layers">
                
            <g transform="matrix(1,0,0,1,0,0)" data-layer-name="first layer" data-layer-color="#007fff" class="layer" active="">
                <path d="M -317.4779357910156 567.3370971679688 C -317.4779357910156 567.3370971679688 -379.912353515625 567.337158203125 -395.5825500488281 570.8281860351562 C -403.9729919433594 572.8382568359375 -410.8818054199219 578.7615966796875 -413.2261657714844 586.0610961914062 C -417.2979736328125 599.4962158203125 -417.2980651855469 627.3193969726562 -417.2980651855469 627.3193969726562 C -417.2980651855469 627.3193969726562 -417.2979736328125 655.248046875 -413.2261657714844 668.4716186523438 C -410.8818054199219 675.7710571289062 -404.09637451171875 681.5885620117188 -395.5825500488281 683.5986328125 C -379.7889404296875 687.1953735351562 -317.4779357910156 687.195556640625 -317.4779357910156 687.195556640625 C -317.4779357910156 687.195556640625 -254.91957092285156 687.1954345703125 -239.2497100830078 683.7044067382812 C -230.7358856201172 681.6944580078125 -223.95057678222656 675.9826049804688 -221.72958374023438 668.577392578125 C -217.5343780517578 655.248046875 -217.53428649902344 627.4251708984375 -217.53428649902344 627.4251708984375 C -217.53428649902344 627.4251708984375 -217.41094970703125 599.4962158203125 -221.72958374023438 586.0610961914062 C -223.95057678222656 578.7615966796875 -230.7358856201172 572.944091796875 -239.2497100830078 571.0397338867188 C -254.91957092285156 567.3373413085938 -317.4779357910156 567.3370971679688 -317.4779357910156 567.3370971679688 Z " fill="rgb(255, 0, 0)" stroke="none" transform="matrix(1 0 0 1 694.233 -378.229)" class="" stroke-width="1.0890442922030565"/><g data-type="object" data-object-id="arc-object" stroke="#000000" fill="none" stroke-width="21" transform="matrix(1 -5.32632e-7 5.32632e-7 1 260.755 80.8957)" stroke-opacity="1" fill-opacity="1" class="">
                    <path data-name="arc-fill" d="M 0.0003351885243318975 -29.954885482788086 A 29.954885091441582 29.954885091441582 0 0 1 -0.00030471684294752777 29.954885482788086L0 0 Z" stroke="none" transform="matrix(1 0 0 1 0 0)" class=""/>
                    <path data-name="arc-stroke" fill="none" d="M 0.0003351885243318975 -29.954885482788086 A 29.954885091441582 29.954885091441582 0 0 1 -0.00030471684294752777 29.954885482788086" transform="matrix(1 0 0 1 0 0)" class=""/>
                <jvs:data xmlns:jvs="http://www.janvas.com/jvs" data-type="jvs-object-properties">{"startAngle":270.00064112709003,"endAngle":450.00058284280914,"radius":29.954885091441582}</jvs:data></g><path data-name="arc-stroke" fill="none" d="M -0.000003180660996804363 49.92485809326172 A 49.92485838960645 49.92485838960645 0 1 1 0.0003358772664796561 -49.92485809326172" transform="matrix(1 -5.32632e-7 5.32632e-7 1 61.0032 100.866)" class="" stroke="#000000" fill-opacity="1" stroke-opacity="1" stroke-width="21"/><path data-name="arc-stroke" fill="none" d="M 0.00009160289482679218 -69.89476776123047 A 69.89476491193129 69.89476491193129 0 1 1 -0.0006412210641428828 69.89476776123047" transform="matrix(1 -5.32632e-7 5.32632e-7 1 285.667 80.8957)" class="" stroke="#000000" fill-opacity="1" stroke-opacity="1" stroke-width="21"/><path d="M 0.0005301127093844116 -54.234928131103516 L 62.534095764160156 53.82424545288086 L -62.53438949584961 53.82424545288086 L 0.0005301127093844116 -54.234928131103516 Z " fill-rule="evenodd" fill="none" stroke="#000000" stroke-opacity="1" fill-opacity="1" transform="matrix(-5.32632e-7 -1 1 -5.32632e-7 412.701 80.5598)" stroke-width="21.011504874581597" stroke-linejoin="round" class="" data-mantain-aspect-ratio="true"/><line x1="-124.813" y1="0.000131684" x2="124.813" y2="-0.000165512" stroke-width="20.975236206216028" stroke="#000000" transform="matrix(1 -5.32632e-7 5.32632e-7 1 160.856 11.0002)" fill="none" fill-opacity="1" stroke-linecap="round" stroke-linejoin="miter" stroke-opacity="1" class=""/><line x1="-112.331" y1="0.000236198" x2="112.331" y2="-0.000281989" stroke-width="20.975236206216028" stroke="#000000" transform="matrix(1 -5.32632e-7 5.32632e-7 1 173.335 150.791)" stroke-linecap="round" fill="none" fill-opacity="1" stroke-opacity="1" class=""/><line x1="-87.3947" y1="-0.000183319" x2="87.3946" y2="6.05335e-05" stroke-width="20.975236206216028" stroke="#000000" transform="matrix(1 -5.32632e-7 5.32632e-7 1 173.361 110.85)" stroke-linecap="round" fill="none" fill-opacity="1" stroke-opacity="1" class=""/><line x1="-99.8757" y1="0.000232296" x2="99.8755" y2="-0.000224929" stroke-width="20.975236206216028" stroke="#000000" transform="matrix(1 -5.32632e-7 5.32632e-7 1 160.88 50.94)" stroke-linecap="round" fill="none" fill-opacity="1" stroke-opacity="1" class=""/><g transform="matrix(1 0 0 1 2 178.804)"><path d="M28.555285 45.977169L55.163871 45.977169Q55.723211 46.856131 56.162692 48.334386Q56.602173 49.812641 56.602173 51.410754L56.602173 51.410754Q56.602173 54.527075 55.283730 55.845518Q53.965286 57.163962 51.727928 57.163962L51.727928 57.163962L34.947738 57.163962L34.947738 66.193302L52.447079 66.193302Q53.086324 67.072264 53.525805 68.510566Q53.965286 69.948868 53.965286 71.546981L53.965286 71.546981Q53.965286 74.583397 52.646843 75.901840Q51.328400 77.220284 49.091041 77.220284L49.091041 77.220284L35.107550 77.220284L35.107550 94.080379Q34.228587 94.320096 32.350804 94.559813Q30.473021 94.799530 28.635191 94.799530L28.635191 94.799530Q26.797360 94.799530 25.399011 94.519860Q24.000662 94.240190 23.041794 93.521039Q22.082926 92.801888 21.603492 91.523398Q21.124058 90.244907 21.124058 88.167360L21.124058 88.167360L21.124058 53.408396Q21.124058 49.972452 23.121700 47.974810Q25.119342 45.977169 28.555285 45.977169L28.555285 45.977169Z" opacity="1" fill="#141414" fill-opacity="1" stroke="none" stroke-opacity="1" stroke-width="0.7686021735717534" transform="matrix(1 0 0 1 0 0)"/><path d="M77.537458 51.890188L77.537458 94.080379Q76.658495 94.320096 74.780712 94.559813Q72.902929 94.799530 71.065099 94.799530L71.065099 94.799530Q69.227268 94.799530 67.828919 94.519860Q66.430570 94.240190 65.471702 93.521039Q64.512834 92.801888 64.033400 91.523398Q63.553966 90.244907 63.553966 88.167360L63.553966 88.167360L63.553966 45.977169Q64.432929 45.817357 66.350664 45.537688Q68.268400 45.258018 70.026325 45.258018L70.026325 45.258018Q71.864155 45.258018 73.262504 45.537688Q74.660854 45.817357 75.619722 46.536508Q76.578590 47.255659 77.058024 48.534150Q77.537458 49.812641 77.537458 51.890188L77.537458 51.890188Z" opacity="1" fill="#141414" fill-opacity="1" stroke="none" stroke-opacity="1" stroke-width="0.7686021735717534" transform="matrix(1 0 0 1 0 0)"/><path d="M131.793404 51.650471L131.793404 92.721983Q130.674724 93.840662 128.557224 94.439954Q126.439724 95.039247 123.483215 95.039247L123.483215 95.039247Q120.526705 95.039247 117.889818 94.160285Q115.252931 93.281322 113.574912 89.925284L113.574912 89.925284L105.664251 73.784340Q104.465666 71.307264 103.506799 69.109859Q102.547931 66.912453 101.429251 64.035849L101.429251 64.035849L100.949817 64.115755Q101.269440 68.430661 101.309393 72.905378Q101.349346 77.380095 101.349346 81.695001L101.349346 81.695001L101.349346 94.080379Q100.470383 94.320096 98.672506 94.559813Q96.874628 94.799530 95.116704 94.799530L95.116704 94.799530Q93.358779 94.799530 92.000383 94.559813Q90.641987 94.320096 89.763024 93.600945Q88.884062 92.881794 88.404628 91.643256Q87.925194 90.404718 87.925194 88.407077L87.925194 88.407077L87.925194 48.454244Q89.043873 46.856131 91.361137 46.057074Q93.678402 45.258018 96.315289 45.258018L96.315289 45.258018Q99.271798 45.258018 101.948638 46.176933Q104.625478 47.095848 106.223591 50.371980L106.223591 50.371980L114.214158 66.512925Q115.412743 68.990000 116.371611 71.187406Q117.330479 73.384812 118.449158 76.261416L118.449158 76.261416L118.848686 76.181510Q118.529063 71.866604 118.449158 67.551698Q118.369252 63.236792 118.369252 58.921886L118.369252 58.921886L118.369252 45.977169Q119.248214 45.737452 121.046092 45.497735Q122.843969 45.258018 124.601894 45.258018L124.601894 45.258018Q128.117743 45.258018 129.955574 46.496556Q131.793404 47.735093 131.793404 51.650471L131.793404 51.650471Z" opacity="1" fill="#141414" fill-opacity="1" stroke="none" stroke-opacity="1" stroke-width="0.7686021735717534" transform="matrix(1 0 0 1 0 0)"/><path d="M156.084726 56.205094L156.084726 84.012265Q156.963688 84.172076 158.242179 84.291935Q159.520669 84.411793 160.639349 84.411793L160.639349 84.411793Q163.356141 84.411793 165.633453 83.612737Q167.910764 82.813680 169.548830 81.135661Q171.186896 79.457642 172.105812 76.780802Q173.024727 74.103963 173.024727 70.348396L173.024727 70.348396Q173.024727 63.156887 169.668689 59.521179Q166.312651 55.885471 160.719254 55.885471L160.719254 55.885471Q159.600575 55.885471 158.441943 55.965377Q157.283311 56.045283 156.084726 56.205094L156.084726 56.205094ZM160.559443 95.678492L160.559443 95.678492Q159.201047 95.678492 157.443122 95.598586Q155.685198 95.518681 153.807414 95.278964Q151.929631 95.039247 150.051848 94.679671Q148.174065 94.320096 146.575952 93.680851L146.575952 93.680851Q142.181140 92.002832 142.181140 87.847737L142.181140 87.847737L142.181140 50.531792Q142.181140 48.853773 143.100055 47.934858Q144.018970 47.015942 145.617084 46.456603L145.617084 46.456603Q149.053027 45.337923 152.888499 44.978348Q156.723971 44.618772 159.760386 44.618772L159.760386 44.618772Q165.993028 44.618772 171.067038 46.136980Q176.141048 47.655188 179.776755 50.811461Q183.412463 53.967735 185.410105 58.762075Q187.407746 63.556415 187.407746 70.108679L187.407746 70.108679Q187.407746 76.501133 185.490010 81.255520Q183.572274 86.009907 180.016472 89.246086Q176.460670 92.482266 171.506519 94.080379Q166.552368 95.678492 160.559443 95.678492Z" opacity="1" fill="#141414" fill-opacity="1" stroke="none" stroke-opacity="1" stroke-width="0.7686021735717534" transform="matrix(1 0 0 1 0 0)"/><path d="" opacity="1" fill="#141414" fill-opacity="1" stroke="none" stroke-opacity="1" stroke-width="0.7686021735717534" transform="matrix(1 0 0 1 0 0)"/><path d="M221.687277 47.415471L221.687277 47.415471Q223.045673 46.616414 225.802418 45.897263Q228.559164 45.178112 231.355862 45.178112L231.355862 45.178112Q235.351145 45.178112 238.427513 46.336744Q241.503881 47.495376 242.382844 49.972452L242.382844 49.972452Q243.821146 54.127547 245.499165 59.641037Q247.177184 65.154528 248.855202 71.027595Q250.533221 76.900661 252.131335 82.613916Q253.729448 88.327171 254.928033 92.721983L254.928033 92.721983Q253.969165 93.840662 252.051429 94.519860Q250.133693 95.199058 247.496806 95.199058L247.496806 95.199058Q245.579070 95.199058 244.260627 94.879436Q242.942183 94.559813 242.103174 93.920568Q241.264164 93.281322 240.744778 92.242549Q240.225391 91.203775 239.825862 89.845379L239.825862 89.845379L238.387560 84.331888L223.924635 84.331888Q223.285390 86.729058 222.646144 89.286039Q222.006899 91.843020 221.367654 94.240190L221.367654 94.240190Q220.248975 94.639719 219.010437 94.919388Q217.771899 95.199058 216.013974 95.199058L216.013974 95.199058Q211.938785 95.199058 209.981097 93.800709Q208.023408 92.402360 208.023408 89.925284L208.023408 89.925284Q208.023408 88.806605 208.343031 87.687926Q208.662653 86.569246 209.062181 85.051039L209.062181 85.051039Q209.621521 82.893586 210.620342 79.697359Q211.619163 76.501133 212.817748 72.785519Q214.016333 69.069906 215.374729 65.154528Q216.733125 61.239151 217.931710 57.763254Q219.130295 54.287358 220.129116 51.570565Q221.127937 48.853773 221.687277 47.415471ZM231.755390 57.723301L231.275956 57.723301Q230.157277 61.079339 228.758928 65.194481Q227.360579 69.309623 226.241899 73.544623L226.241899 73.544623L236.150202 73.544623Q235.031522 69.229717 233.872890 65.114575Q232.714258 60.999434 231.755390 57.723301L231.755390 57.723301Z" opacity="1" fill="#141414" fill-opacity="1" stroke="none" stroke-opacity="1" stroke-width="0.7686021735717534" transform="matrix(1 0 0 1 0 0)"/></g><g transform="matrix(1 0 0 1 276.683 178.802)"><path d="M51.069621 55.725660L51.069621 55.725660Q44.916885 55.725660 41.640752 59.481226Q38.364620 63.236792 38.364620 70.108679L38.364620 70.108679Q38.364620 77.060472 42.000328 80.816039Q45.636036 84.571605 51.788772 84.571605L51.788772 84.571605Q55.064904 84.571605 57.342215 83.692642Q59.619527 82.813680 61.697074 81.695001L61.697074 81.695001Q63.055470 82.813680 63.814574 84.371841Q64.573678 85.930001 64.573678 88.007548L64.573678 88.007548Q64.573678 91.283681 60.937970 93.560992Q57.302263 95.838303 49.871036 95.838303L49.871036 95.838303Q44.517356 95.838303 39.802922 94.320096Q35.088488 92.801888 31.572639 89.645614Q28.056789 86.489341 26.019195 81.655048Q23.981600 76.820755 23.981600 70.108679L23.981600 70.108679Q23.981600 63.876038 25.939289 59.121651Q27.896978 54.367264 31.292969 51.091131Q34.688960 47.814999 39.243582 46.136980Q43.798205 44.458961 48.992073 44.458961L48.992073 44.458961Q56.343395 44.458961 60.378631 46.856131Q64.413867 49.253301 64.413867 53.008867L64.413867 53.008867Q64.413867 55.086415 63.375093 56.604622Q62.336319 58.122830 60.977923 59.001792L60.977923 59.001792Q58.900376 57.643396 56.543159 56.684528Q54.185942 55.725660 51.069621 55.725660Z" opacity="1" fill="#FFFFFF" fill-opacity="1" stroke="none" stroke-opacity="1" stroke-width="0.3694488995626654" transform="matrix(1 0 0 1 0 0)"/><path d="M100.850850 94.639719L79.436132 94.639719Q76.000188 94.639719 74.002547 92.642077Q72.004905 90.644435 72.004905 87.208492L72.004905 87.208492L72.004905 45.897263Q72.883867 45.737452 74.801603 45.457782Q76.719339 45.178112 78.477264 45.178112L78.477264 45.178112Q80.315094 45.178112 81.713443 45.457782Q83.111792 45.737452 84.070660 46.456603Q85.029528 47.175754 85.508962 48.454244Q85.988396 49.732735 85.988396 51.810282L85.988396 51.810282L85.988396 83.373020L104.286793 83.373020Q104.846133 84.251982 105.325567 85.730237Q105.805001 87.208492 105.805001 88.806605L105.805001 88.806605Q105.805001 92.002832 104.446605 93.321275Q103.088208 94.639719 100.850850 94.639719L100.850850 94.639719Z" opacity="1" fill="#FFFFFF" fill-opacity="1" stroke="none" stroke-opacity="1" stroke-width="0.3694488995626654" transform="matrix(1 0 0 1 0 0)"/><path d="M126.980002 51.890188L126.980002 94.080379Q126.101040 94.320096 124.223257 94.559813Q122.345474 94.799530 120.507643 94.799530L120.507643 94.799530Q118.669813 94.799530 117.271464 94.519860Q115.873115 94.240190 114.914247 93.521039Q113.955379 92.801888 113.475945 91.523398Q112.996511 90.244907 112.996511 88.167360L112.996511 88.167360L112.996511 45.977169Q113.875473 45.817357 115.793209 45.537688Q117.710945 45.258018 119.468870 45.258018L119.468870 45.258018Q121.306700 45.258018 122.705049 45.537688Q124.103398 45.817357 125.062266 46.536508Q126.021134 47.255659 126.500568 48.534150Q126.980002 49.812641 126.980002 51.890188L126.980002 51.890188Z" opacity="1" fill="#FFFFFF" fill-opacity="1" stroke="none" stroke-opacity="1" stroke-width="0.3694488995626654" transform="matrix(1 0 0 1 0 0)"/><path d="M151.271324 68.430661L155.506324 68.430661Q158.862362 68.430661 160.660240 66.872500Q162.458117 65.314340 162.458117 62.118113L162.458117 62.118113Q162.458117 59.081698 160.580334 57.443632Q158.702551 55.805566 155.106796 55.805566L155.106796 55.805566Q153.828305 55.805566 152.989296 55.845518Q152.150287 55.885471 151.271324 56.045283L151.271324 56.045283L151.271324 68.430661ZM151.351230 79.377737L151.351230 94.080379Q150.472268 94.320096 148.594484 94.559813Q146.716701 94.799530 144.878871 94.799530L144.878871 94.799530Q143.041041 94.799530 141.642692 94.519860Q140.244342 94.240190 139.285475 93.521039Q138.326607 92.801888 137.847173 91.523398Q137.367739 90.244907 137.367739 88.167360L137.367739 88.167360L137.367739 50.531792Q137.367739 48.853773 138.286654 47.934858Q139.205569 47.015942 140.803682 46.456603L140.803682 46.456603Q143.520475 45.497735 146.996371 45.058254Q150.472268 44.618772 153.988117 44.618772L153.988117 44.618772Q165.015099 44.618772 170.848212 49.333207Q176.681326 54.047641 176.681326 62.118113L176.681326 62.118113Q176.681326 66.033491 175.442788 69.189764Q174.204250 72.346038 171.767127 74.623350Q169.330004 76.900661 165.614391 78.139199Q161.898778 79.377737 157.024532 79.377737L157.024532 79.377737L151.351230 79.377737Z" opacity="1" fill="#FFFFFF" fill-opacity="1" stroke="none" stroke-opacity="1" stroke-width="0.3694488995626654" transform="matrix(1 0 0 1 0 0)"/></g></g></g>
        </g>
    </svg></svg>