<svg xmlns="http://www.w3.org/2000/svg" xmlns:xlink="http://www.w3.org/1999/xlink" style="height:unset;" data-version="6.4" viewBox="0 0 516 516"><jvs:data xmlns="http://www.w3.org/1999/xhtml" xmlns:jvs="http://www.janvas.com/jvs" data-type="jvs-doc-preferences">{"unitKey":"PIXEL","unitValue":1,"drawingScale":1,"findAllElementAtPoint":1,"optimizeZoom":false,"mantainAspectRatio":true,"interactionLabelVisibility":false,"svgAlignmentPreserveAspectRatio":"unset","snap":{"distance":10,"offsetDistance":50,"snapToPoints":true,"snapToContour":true,"snapToPerpendicular":true,"snapToTangent":true,"snapToIntersection":true,"snapToCenter":true,"snapToGrid":true,"snapToOffset":true,"snapToAngles":true,"snapAngleList":[45],"useSmartPoints":true,"useSmartGuides":true},"fixedDecimals":0,"rulersVisibility":true,"gridVisibility":false,"elementOriginVisibility":false,"gridStep":1,"origin":{"x":0,"y":0},"selectMainNodes":true,"scaleStrokeAndEffects":true,"scaleText":true,"moveStep":1,"rotateStep":45}</jvs:data><defs>
            </defs><svg class="page showed" xmlns="http://www.w3.org/2000/svg" xmlns:xlink="http://www.w3.org/1999/xlink" height="516" width="516" data-page-width="516" data-page-height="516" style="position: absolute;left: 0; top:0; right: 0; bottom:0; " id="" viewBox="0 0 516 516" y="0">
        <g class="content">
            <g class="layers">
                
            <g transform="matrix(1,0,0,1,0,0)" data-layer-name="first layer" data-layer-color="#007fff" class="layer" active="">
                <path d="M 508.6317138671875 68.66374969482422 C 502.62054443359375 42.25764083862305 485.2808532714844 21.58003807067871 463.052978515625 14.517484664916992 C 433.1956787109375 0.8239734172821045 144.00221252441406 -5.885454177856445 60.11101531982422 14.909849166870117 C 37.88315200805664 22.05087661743164 20.47737693786621 42.64999771118164 14.532332420349121 69.05611419677734 C 1.0568945407867432 139.28932189941406 0.03302554786205292 291.1342468261719 14.862611770629883 362.9368896484375 C 20.87371253967285 389.34307861328125 38.21342849731445 410.0205993652344 60.441287994384766 417.0831298828125 C 119.56146240234375 433.24859619140625 400.6300354003906 435.52435302734375 463.38330078125 417.0831298828125 C 485.6111145019531 409.9421691894531 503.0169372558594 389.34307861328125 508.9619445800781 362.9368896484375 C 523.3291015625 286.4259033203125 524.35302734375 143.9976806640625 508.6317138671875 68.66374969482422 Z " fill="#f00" transform="matrix(1 0 0 1 -4.0815 42.3262)" class="" stroke-width="3.6294008779824036"/><g data-type="object" data-object-id="arc-object" stroke="#FFFFFF" fill="none" stroke-width="39" transform="matrix(1 0 0 1 206.225 257.476)" stroke-opacity="1" fill-opacity="1" class="">
                    <path data-name="arc-fill" d="M 0.00041949920705519617 -37.489501953125 A 37.48950086390182 37.48950086390182 0 0 1 -0.0003813629155047238 37.489501953125L0 0 Z" stroke="none" transform="matrix(1 0 0 1 0 0)" class=""/>
                    <path data-name="arc-stroke" fill="none" d="M 0.00041949920705519617 -37.489501953125 A 37.48950086390182 37.48950086390182 0 0 1 -0.0003813629155047238 37.489501953125" transform="matrix(1 0 0 1 0 0)" class=""/>
                <jvs:data xmlns:jvs="http://www.janvas.com/jvs" data-type="jvs-object-properties">{"startAngle":270.00064112709003,"endAngle":450.00058284280914,"radius":37.48950086390182}</jvs:data></g><g data-type="object" data-object-id="arc-object" stroke="#FFFFFF" fill="none" stroke-width="39" transform="matrix(1 0 0 1 134.482 292.47)" stroke-opacity="1" fill-opacity="1" class="">
                    <path data-name="arc-fill" d="M -0.000004618899765773676 72.5 A 72.5 72.5 0 1 1 0.00048775505274534225 -72.5L0 0 Z" stroke="none" transform="matrix(1 0 0 1 0 0)" class=""/>
                    <path data-name="arc-stroke" fill="none" d="M -0.000004618899765773676 72.5 A 72.5 72.5 0 1 1 0.00048775505274534225 -72.5" transform="matrix(1 0 0 1 0 0)" class=""/>
                <jvs:data xmlns:jvs="http://www.janvas.com/jvs" data-type="jvs-object-properties">{"startAngle":90.00000365025484,"endAngle":270.00038546629054,"radius":72.5}</jvs:data></g><g data-type="object" data-object-id="arc-object" stroke="#FFFFFF" fill="none" stroke-width="39" transform="matrix(1 0 0 1 208.651 257.476)" stroke-opacity="1" fill-opacity="1" class="">
                    <path data-name="arc-fill" d="M 0.00014088767056819052 -107.5 A 107.5 107.5 0 1 1 -0.0009862149599939585 107.5L0 0 Z" stroke="none" transform="matrix(1 0 0 1 0 0)" class=""/>
                    <path data-name="arc-stroke" fill="none" d="M 0.00014088767056819052 -107.5 A 107.5 107.5 0 1 1 -0.0009862149599939585 107.5" transform="matrix(1 0 0 1 0 0)" class=""/>
                <jvs:data xmlns:jvs="http://www.janvas.com/jvs" data-type="jvs-object-properties">{"startAngle":270.0000750908754,"endAngle":450.00052563678076,"radius":107.5}</jvs:data></g><path d="M 0.0009694748441688716 -67.61973571777344 L 78.26373291015625 67.61978149414062 L -78.26348114013672 67.61978149414062 L 0.0009694748441688716 -67.61973571777344 Z " fill-rule="evenodd" fill="none" stroke="#FFFFFF" stroke-opacity="1" fill-opacity="1" transform="matrix(6.12323e-17 -1 1 6.12323e-17 384.38 257.056)" stroke-width="39" stroke-linejoin="round" class=""/><line x1="-159.61099243164062" y1="-0.001009613275527954" x2="-61.610992431640625" y2="-0.0002600901643745601" stroke-width="39" stroke="#FFFFFF" transform="matrix(1 0 0 1 269.611 150.001)" fill="none" fill-opacity="1" stroke-linecap="round" stroke-linejoin="miter" stroke-opacity="1" class=""/><line x1="-140.58599853515625" y1="0.0003632529987953603" x2="-70.58599853515625" y2="0.00020179673447273672" stroke-width="39" stroke="#FFFFFF" transform="matrix(1 0 0 1 277.066 364.953)" stroke-linecap="round" fill="none" fill-opacity="1" stroke-opacity="1" class=""/><line x1="-109.37699890136719" y1="-0.00024253400624729693" x2="-57.37699890136719" y2="-0.00016998704813886434" stroke-width="39" stroke="#FFFFFF" transform="matrix(1 0 0 1 263.099 294.966)" stroke-linecap="round" fill="none" fill-opacity="1" stroke-opacity="1" class=""/><line x1="-124.99800109863281" y1="0.00023631000658497214" x2="-52.99800109863281" y2="0.0000715053392923437" stroke-width="39" stroke="#FFFFFF" transform="matrix(1 0 0 1 259.48 219.986)" stroke-linecap="round" fill="none" fill-opacity="1" stroke-opacity="1" class=""/></g></g>
        </g>
    </svg></svg>